<svg width="22" height="22" viewBox="0 0 22 22" fill="none" xmlns="http://www.w3.org/2000/svg" xmlns:xlink="http://www.w3.org/1999/xlink">
<path d="M20.394,3.061C20.98,2.475 20.98,1.525 20.394,0.939C19.808,0.354 18.858,0.354 18.273,0.939L20.394,3.061ZM2,19.333L0.5,19.333C0.5,20.162 1.172,20.833 2,20.833L2,19.333ZM3.5,2.693C3.5,1.865 2.828,1.193 2,1.193C1.172,1.193 0.5,1.865 0.5,2.693L3.5,2.693ZM18.64,20.833C19.468,20.833 20.14,20.162 20.14,19.333C20.14,18.505 19.468,17.833 18.64,17.833L18.64,20.833ZM18.273,0.939L0.939,18.273L3.061,20.394L20.394,3.061L18.273,0.939ZM3.5,19.333L3.5,2.693L0.5,2.693L0.5,19.333L3.5,19.333ZM2,20.833L18.64,20.833L18.64,17.833L2,17.833L2,20.833Z" transform="rotate(0 10.667 10.667)" fill="#E40C0C"/>
</svg>
