<svg width="26" height="26" viewBox="0 0 26 26" fill="none" xmlns="http://www.w3.org/2000/svg" xmlns:xlink="http://www.w3.org/1999/xlink">
<path d="M0.939,22.606C0.354,23.192 0.354,24.141 0.939,24.727C1.525,25.313 2.475,25.313 3.061,24.727L0.939,22.606ZM23.667,2L25.167,2C25.167,1.172 24.495,0.5 23.667,0.5L23.667,2ZM22.167,22.8C22.167,23.628 22.838,24.3 23.667,24.3C24.495,24.3 25.167,23.628 25.167,22.8L22.167,22.8ZM2.867,0.5C2.038,0.5 1.367,1.172 1.367,2C1.367,2.828 2.038,3.5 2.867,3.5L2.867,0.5ZM3.061,24.727L24.727,3.061L22.606,0.939L0.939,22.606L3.061,24.727ZM22.167,2L22.167,22.8L25.167,22.8L25.167,2L22.167,2ZM23.667,0.5L2.867,0.5L2.867,3.5L23.667,3.5L23.667,0.5Z" transform="rotate(0 12.833 12.833)" fill="#00CA45"/>
</svg>
