<svg width="48" height="48" viewBox="0 0 48 48" fill="none" xmlns="http://www.w3.org/2000/svg" xmlns:xlink="http://www.w3.org/1999/xlink">
<path d="M24,12.5C24.828,12.5 25.5,13.172 25.5,14L25.5,26C25.5,26.828 24.828,27.5 24,27.5C23.172,27.5 22.5,26.828 22.5,26L22.5,14C22.5,13.172 23.172,12.5 24,12.5Z" clip-rule="evenodd" fill-rule="evenodd" transform="rotate(0 24 20)" fill="#E7B500"/>
<path d="M25.023,32.883C25.639,33.437 25.689,34.385 25.135,35.001L25.115,35.023C24.561,35.639 23.612,35.689 22.997,35.135C22.381,34.581 22.331,33.632 22.885,33.017L22.905,32.994C23.459,32.379 24.408,32.329 25.023,32.883Z" clip-rule="evenodd" fill-rule="evenodd" transform="rotate(0 24.01 34.009)" fill="#E7B500"/>
<path d="M24,5.5C13.783,5.5 5.5,13.783 5.5,24C5.5,34.217 13.783,42.5 24,42.5C34.217,42.5 42.5,34.217 42.5,24C42.5,13.783 34.217,5.5 24,5.5ZM2.5,24C2.5,12.126 12.126,2.5 24,2.5C35.874,2.5 45.5,12.126 45.5,24C45.5,35.874 35.874,45.5 24,45.5C12.126,45.5 2.5,35.874 2.5,24Z" clip-rule="evenodd" fill-rule="evenodd" fill="#E7B500"/>
</svg>
